<?xml version="1.0" ?><svg data-name="Layer 6" id="Layer_6" viewBox="0 0 32 32" xmlns="http://www.w3.org/2000/svg"><title/><path d="M7.5,21a4.5,4.5,0,0,1-.21-8.99A7,7,0,1,1,20.96,9.36,5.762,5.762,0,0,1,23,9a6,6,0,0,1,0,12H7.5Z" style="fill:#a9e5ff"/><polygon points="17 11 12 11 14 15 11 15 19 29 17 17 20 17 17 11" style="fill:#F1DC49"/><path d="M9.56,27.644a1,1,0,1,0-1.873.7l0.377,1a1,1,0,1,0,1.873-.7Z" style="fill:#158fcc"/><path d="M28.563,27.652a1,1,0,1,0-1.873.7l0.374,1a1,1,0,1,0,1.873-.7Z" style="fill:#158fcc"/><path d="M27.438,24.651l-1.28-3.412A7,7,0,0,0,21.77,8.107,7.929,7.929,0,0,0,14,2a8.009,8.009,0,0,0-8,8,8.154,8.154,0,0,0,.087,1.188A5.492,5.492,0,0,0,5.1,21.439l1.466,3.91a1,1,0,0,0,1.873-.7L7.442,22,7.5,22h6.348l4.284,7.5a1,1,0,0,0,1.854-.661L18.847,22H23a6.991,6.991,0,0,0,1.262-.12l1.3,3.473A1,1,0,0,0,27.438,24.651ZM12.723,16H14a1,1,0,0,0,.895-1.447L13.618,12h2.764l2,4H17a1,1,0,0,0-.986,1.165l1.081,6.485Zm5.791,4-0.333-2H20a1,1,0,0,0,.895-1.447l-3-6A1,1,0,0,0,17,10H12a1,1,0,0,0-.895,1.447L12.382,14H11a1,1,0,0,0-.868,1.5L12.706,20H7.5a3.5,3.5,0,0,1-.164-6.991,1,1,0,0,0,.913-1.284A6.014,6.014,0,0,1,14,4a5.942,5.942,0,0,1,5.964,5.446,1,1,0,0,0,1.347.85A4.8,4.8,0,0,1,23,10a5,5,0,0,1,0,10H18.514Z" style="fill:#158fcc"/><path d="M11.928,23.628a1,1,0,0,0-1.856.743l0.8,2a1,1,0,0,0,1.856-.743Z" style="fill:#158fcc"/><path d="M22.928,23.628a1,1,0,1,0-1.856.743l0.8,2a1,1,0,1,0,1.856-.743Z" style="fill:#158fcc"/></svg>